<?xml version="1.0" encoding="UTF-8" standalone="no"?>
<!-- Created with Inkscape (http://www.inkscape.org/) -->
<svg xmlns:dc="http://purl.org/dc/elements/1.1/" xmlns:cc="http://creativecommons.org/ns#" xmlns:rdf="http://www.w3.org/1999/02/22-rdf-syntax-ns#" xmlns:svg="http://www.w3.org/2000/svg" xmlns="http://www.w3.org/2000/svg" xmlns:sodipodi="http://sodipodi.sourceforge.net/DTD/sodipodi-0.dtd" xmlns:inkscape="http://www.inkscape.org/namespaces/inkscape" id="svg2" version="1.1" inkscape:version="0.48+devel r12701" width="322.78186" height="424" viewBox="0 0 322.78186 424" sodipodi:docname="a.svg">
  <title id="title4059">ASL letter</title>

  <metadata id="metadata8">
    <rdf:RDF>
      <cc:Work rdf:about="">
        <dc:format>image/svg+xml</dc:format>
        <dc:type rdf:resource="http://purl.org/dc/dcmitype/StillImage"/>
        <dc:title>ASL letter</dc:title>
        <dc:date>11/11/2013</dc:date>
        <dc:creator>
          <cc:Agent>
            <dc:title>edited by Paul Sherman</dc:title>
          </cc:Agent>
        </dc:creator>
        <dc:rights>
          <cc:Agent>
            <dc:title>PD</dc:title>
          </cc:Agent>
        </dc:rights>
        <dc:publisher>
          <cc:Agent>
            <dc:title>WPClipart</dc:title>
          </cc:Agent>
        </dc:publisher>
        <dc:subject>
          <rdf:Bag>
            <rdf:li>sign</rdf:li>
            <rdf:li>language</rdf:li>
            <rdf:li>letter</rdf:li>
            <rdf:li>american</rdf:li>
          </rdf:Bag>
        </dc:subject>
        <cc:license rdf:resource="http://creativecommons.org/publicdomain/zero/1.0/"/>
      </cc:Work>
      <cc:License rdf:about="http://creativecommons.org/publicdomain/zero/1.0/">
        <cc:permits rdf:resource="http://creativecommons.org/ns#Reproduction"/>
        <cc:permits rdf:resource="http://creativecommons.org/ns#Distribution"/>
        <cc:permits rdf:resource="http://creativecommons.org/ns#DerivativeWorks"/>
      </cc:License>
    </rdf:RDF>
  </metadata>
  <defs id="defs6"/>
  <sodipodi:namedview pagecolor="#ffffff" bordercolor="#666666" borderopacity="1" objecttolerance="10" gridtolerance="10" guidetolerance="10" inkscape:pageopacity="0" inkscape:pageshadow="2" inkscape:window-width="1180" inkscape:window-height="993" id="namedview4" showgrid="false" inkscape:zoom="0.6344086" inkscape:cx="-123.7686" inkscape:cy="201.98415" inkscape:window-x="393" inkscape:window-y="10" inkscape:window-maximized="0" inkscape:current-layer="svg2" fit-margin-top="12" fit-margin-left="12" fit-margin-right="12" fit-margin-bottom="12"/>
  <path style="fill:#000000" d="m 65.002225,408.67611 c -2.398124,-3.04872 -2.683309,-5.21996 -2.75482,-20.97366 -0.04387,-9.66508 -0.769884,-27.18032 -1.613358,-38.92274 -1.494439,-20.80483 -1.634558,-21.48032 -5.488521,-26.45908 -8.847528,-11.42974 -23.794833,-38.68273 -23.794833,-43.38443 0,-1.02583 -0.625958,-2.49109 -1.391019,-3.25616 -0.765061,-0.76505 -1.902881,-3.34965 -2.528491,-5.74356 -0.625611,-2.39388 -2.094919,-7.54698 -3.265132,-11.4513 -4.414192,-14.72763 -7.570729,-31.75508 -10.886627,-58.72625 -0.698192,-5.67902 -1.273848,-20.95712 -1.279236,-33.95133 -0.0088,-21.02149 0.282528,-24.29386 2.642053,-29.68579 3.438451,-7.85748 4.198216,-9.57899 8.655623,-19.61217 2.049939,-4.6142 4.845637,-11.20055 6.212666,-14.63633 1.367029,-3.435772 5.099147,-9.054187 8.293597,-12.485363 7.101972,-7.628268 16.836779,-11.075036 27.238899,-9.644379 5.715328,0.786059 7.030588,0.484755 11.547224,-2.645277 2.803473,-1.942807 5.097223,-4.058996 5.097223,-4.702642 0,-2.565556 10.472477,-15.137896 14.877023,-17.860056 6.458224,-3.991399 18.635044,-3.147858 25.908834,1.794817 2.74308,1.86396 5.41358,3.389019 5.93448,3.389019 0.52089,0 4.95927,-4.052182 9.86307,-9.00485 4.90378,-4.952667 10.57617,-9.636053 12.60529,-10.407523 2.22864,-0.847331 7.53091,-1.089893 13.39235,-0.612661 18.1326,1.476338 19.16042,1.800577 25.35989,8.000044 l 5.78541,5.785409 6.71432,-4.624329 6.71432,-4.62433 16.12241,-0.03355 16.1224,-0.03354 7.74412,-13.068118 c 4.25927,-7.187464 9.37081,-14.277481 11.35899,-15.755593 4.34424,-3.229727 19.31414,-4.426414 27.56832,-2.203799 8.0627,2.171059 8.8024,5.145098 6.40956,25.769936 l -1.96256,16.915954 3.92007,9.369921 c 2.15604,5.153456 4.66589,11.112348 5.57747,13.241981 7.44857,17.401605 10.30645,29.410339 8.60054,36.139229 -0.71987,2.83951 -1.8652,7.35725 -2.54517,10.03941 -0.67997,2.68217 -1.77362,5.58621 -2.43034,6.45344 -2.10284,2.7769 -7.79048,30.81193 -9.44608,46.56081 -1.05652,10.05009 -1.67466,13.06567 -5.99165,29.23044 -3.36917,12.61571 -11.35673,29.13392 -22.46852,46.46472 -0.68271,1.06482 -1.58258,2.95245 -1.9997,4.19473 -0.41713,1.24229 -1.23234,2.2587 -1.81158,2.2587 -0.57925,0 -1.45105,1.25354 -1.93731,2.78565 -0.85306,2.68772 -11.93559,21.71272 -13.41443,23.02809 -0.39906,0.35494 -2.46635,3.21237 -4.59398,6.34987 -2.12765,3.13749 -6.91546,8.92881 -10.6396,12.8696 -4.43261,4.69047 -7.06309,8.72118 -7.61643,11.67075 -0.4649,2.47812 -0.44247,20.91274 0.0498,40.9658 l 0.89509,36.46012 -5.19186,3.27749 c -2.85552,1.80261 -5.40631,3.27748 -5.66841,3.27748 -0.65904,0 -2.57322,-37.28625 -2.89167,-56.32684 -0.29195,-17.45685 -1.98336,-24.6322 -6.16707,-26.16239 -1.52764,-0.55873 -9.46864,-2.31442 -17.64667,-3.90154 -11.51507,-2.23473 -17.19236,-4.11951 -25.16839,-8.35549 -10.02832,-5.32594 -10.46076,-5.75595 -16.43883,-16.34673 -14.25006,-25.24542 -17.57756,-37.21487 -15.85128,-57.01895 1.06022,-12.16284 -1.18971,-13.66574 -5.1521,-3.44152 -1.39856,3.60872 -3.26885,7.16469 -4.15619,7.90216 -0.88735,0.73747 -1.61336,2.65065 -1.61336,4.2515 0,3.07814 -2.87806,6.37186 -4.31349,4.93643 -1.42263,-1.42264 -0.96963,-4.8687 1.76553,-13.43052 1.43815,-4.50176 2.32876,-8.93043 1.97915,-9.84149 -0.34961,-0.91105 -2.86185,-2.54722 -5.58277,-3.63591 -2.82406,-1.12996 -8.95273,-6.11801 -14.280851,-11.62298 l -9.33373,-9.64354 -8.080544,0 c -7.839617,0 -8.23384,-0.16355 -13.221693,-5.48541 -5.70648,-6.08861 -10.884559,-13.1714 -10.884559,-14.88832 0,-0.61488 -1.365785,-2.40105 -3.035078,-3.96928 -2.68191,-2.51952 -4.60299,-2.88362 -16.50953,-3.12903 -11.018453,-0.2271 -14.107959,0.13695 -16.950075,1.99731 -4.563923,2.9874 -5.511032,7.33256 -3.079636,14.12881 1.089653,3.04581 2.910089,10.76511 4.045413,17.15401 1.135324,6.3889 2.612394,13.93942 3.282375,16.77893 0.66998,2.83951 1.811267,8.3572 2.53619,12.26152 2.382373,12.83109 3.895526,19.81215 5.160847,23.80998 0.685821,2.16689 2.514324,8.29585 4.063339,13.61994 3.136928,10.78186 2.922412,10.29608 9.689045,21.94167 5.442688,9.36704 4.754055,8.4954 15.17643,19.20959 9.111491,9.36659 16.789938,12.36274 31.759907,12.3928 12.19238,0.0245 26.79114,-4.17926 35.0485,-10.09228 3.94354,-2.82394 6.25347,-1.99513 6.25347,2.24373 0,6.08256 -13.70882,13.67331 -32.93117,18.2344 -7.798393,1.85041 -16.028276,4.00786 -18.28865,4.79434 -3.146338,1.09473 -4.570274,1.04775 -6.074224,-0.20042 -4.186152,-3.47419 -4.658913,-0.32758 -4.658913,31.00902 0,39.94056 -1.856763,48.04821 -8.941128,39.0419 z M 209.21065,299.07849 c 11.9366,-2.76085 21.74804,-10.78462 35.06863,-28.67906 5.67057,-7.61766 10.7592,-14.43109 11.30808,-15.14097 1.06352,-1.37548 14.15296,-27.92925 15.90582,-32.26717 3.59505,-8.89693 12.8321,-40.6931 12.8321,-44.17124 0,-1.45332 0.82348,-5.46793 1.82997,-8.92137 1.00648,-3.45343 2.80835,-10.92545 4.00415,-16.60447 1.19581,-5.67902 2.74153,-12.64873 3.43497,-15.48824 0.69343,-2.83951 1.73087,-7.48598 2.30544,-10.32549 0.57456,-2.83951 1.4502,-6.93943 1.94586,-9.11095 0.84091,-3.68399 0.5464,-4.10819 -4.40131,-6.33929 -6.65941,-3.00297 -8.01992,-7.07928 -4.12231,-12.35107 1.51104,-2.043794 2.74735,-4.13768 2.74735,-4.653079 0,-0.515401 1.11463,-2.136145 2.47697,-3.601653 2.30448,-2.479016 2.34328,-3.024059 0.55716,-7.827306 -1.0559,-2.83951 -2.47758,-7.40179 -3.15928,-10.138396 -1.92057,-7.709813 -4.81434,-12.726108 -9.91247,-17.183066 l -4.67737,-4.0891 0.34038,-10.871589 c 0.1872,-5.979371 1.12351,-13.141816 2.0807,-15.916541 2.30593,-6.684492 0.14367,-8.113559 -7.72781,-5.107417 -5.5271,2.110824 -17.40079,12.608501 -17.41615,15.397858 -0.004,0.793943 -0.86269,3.082285 -1.90736,5.085206 -3.23617,6.204552 -4.66751,23.04939 -3.13014,36.836744 0.75895,6.806266 1.73567,12.950669 2.17049,13.65423 0.43483,0.703561 1.11438,3.270912 1.5101,5.705226 0.64303,3.955533 1.35361,4.610913 6.68456,6.165333 6.58979,1.92148 10.43036,5.149 7.40985,6.22708 -0.96729,0.34525 -5.19152,0.78773 -9.38719,0.98329 l -7.62846,0.35556 -3.1351,8.38947 c -4.61073,12.33828 -5.48155,18.00234 -4.18163,27.19886 0.63736,4.50911 1.0403,8.25072 0.89541,8.31468 -3.86936,1.70795 -7.82151,5.58435 -9.5461,9.36317 -1.20856,2.6481 -2.38306,5.13468 -2.61,5.52575 -0.42996,0.74091 1.7912,3.35535 16.16572,19.028 12.67034,13.81458 17.92134,24.78966 11.86055,24.78966 -1.4341,0 -2.58137,-0.86046 -2.58137,-1.93603 0,-1.06481 -0.58081,-1.93603 -1.29069,-1.93603 -1.86806,0 -1.58694,2.8816 0.73525,7.53657 2.00934,4.02782 1.45228,9.94899 -0.80475,8.55406 -0.64589,-0.39918 -5.33112,-7.67749 -10.41164,-16.17403 -11.63196,-19.45306 -18.40686,-27.44209 -22.25428,-26.24249 -1.51716,0.47305 -3.17346,1.50781 -3.68067,2.29948 -0.58603,0.91467 -6.06398,1.4394 -15.02671,1.4394 -12.05755,0 -14.49925,0.35682 -16.82472,2.45874 -1.49613,1.35231 -2.72025,3.13127 -2.72025,3.95326 0,1.69475 -5.50111,6.98541 -10.32549,9.93048 -1.8454,1.12652 -8.15545,2.34268 -14.74008,2.84089 -6.33236,0.47912 -12.35078,1.56612 -13.37427,2.41553 -3.46212,2.87332 -8.12323,15.19873 -8.90216,23.54011 -1.07961,11.56134 1.37342,22.41448 8.32198,36.81959 10.16904,21.08152 14.72541,25.87864 28.69453,30.21074 7.90782,2.45237 24.12195,2.47913 34.59374,0.0571 z m -79.49149,-91.83405 c 3.18736,-2.87215 6.61749,-12.6541 5.70798,-16.27786 -0.42739,-1.70292 -2.79001,-5.2938 -5.25025,-7.97976 -4.0505,-4.42211 -4.92622,-4.81001 -9.26829,-4.1054 -6.48475,1.05233 -7.27151,2.12829 -8.37027,11.44702 -1.01439,8.60309 0.25735,12.78894 5.46885,18.00045 2.91479,2.91478 7.77305,2.46494 11.71198,-1.08445 z m 33.18037,-16.40731 c 4.02232,-2.2284 7.13327,-12.86891 4.42066,-15.12018 -0.95594,-0.79336 -1.73809,-2.46187 -1.73809,-3.70778 0,-3.92318 -3.3448,-5.53492 -9.5541,-4.60378 -6.56611,0.98466 -7.06038,1.80262 -8.15181,13.49052 -0.66354,7.10568 -0.43568,8.51953 1.61459,10.01872 3.01914,2.20766 9.35003,2.17105 13.40875,-0.0776 z m 14.8058,-15.60124 c 2.61172,-44.22287 3.66037,-57.35875 4.94579,-61.95296 0.79447,-2.83952 1.87062,-8.0668 2.39145,-11.61618 0.52083,-3.549393 1.53814,-8.776674 2.26067,-11.616184 0.72253,-2.839511 2.01015,-9.257194 2.86136,-14.261517 1.42288,-8.365131 1.3363,-9.50989 -1.07372,-14.197554 -1.44175,-2.80433 -4.45654,-6.84121 -6.69951,-8.970843 -3.96397,-3.763674 -4.43364,-3.87206 -16.77887,-3.87206 -12.23794,0 -12.8781,0.143598 -17.56824,3.940836 -2.67711,2.167459 -6.06998,6.233122 -7.5397,9.034807 -2.58212,4.922209 -2.66165,6.725976 -2.35879,53.494725 0.1724,26.62041 0.6498,51.44999 1.06089,55.17685 0.79184,7.1785 3.14308,9.40477 3.14308,2.97602 0,-2.11895 1.33074,-5.34715 3.00802,-7.29712 2.42074,-2.81428 4.40056,-3.61252 10.1404,-4.08851 3.92468,-0.32547 8.32,0.0441 9.77311,0.82181 3.8288,2.04912 7.97779,11.52369 8.59023,19.61652 0.66787,8.82542 0.5475,8.38971 1.91849,6.94438 0.63969,-0.67439 1.5061,-7.03425 1.92534,-14.13302 z m -24.79674,-32.37807 c -2.79086,-1.95479 -3.7088,-5.0027 -1.84671,-6.13183 0.53241,-0.32285 6.05009,-1.00663 12.26152,-1.51953 10.74952,-0.8876 11.29351,-0.80798 11.29351,1.65307 0,5.79043 -15.78001,10.15065 -21.70832,5.99829 z m -60.403278,41.34617 c 0.914942,-2.38431 -0.25189,-8.21091 -2.119036,-10.58146 -2.087751,-2.65062 -6.005281,-1.89732 -6.71221,1.29069 -1.041016,4.69462 -0.03102,11.39974 1.896602,12.59107 2.151876,1.32994 5.829481,-0.4203 6.934644,-3.3003 z m 14.890568,-3.14811 c 1.7426,-8.85739 2.76007,-9.67666 13.30168,-10.71029 4.06354,-0.39843 7.984,-1.09262 8.71213,-1.54263 1.37678,-0.8509 1.8957,-21.60547 0.57326,-22.92791 -0.41284,-0.41284 -2.79093,0.10183 -5.28465,1.14383 -2.49372,1.04195 -6.94761,1.71853 -9.89756,1.50351 -4.72513,-0.34439 -5.41068,-0.79856 -5.7599,-3.81589 -0.33344,-2.88094 0.28159,-3.64372 3.87206,-4.80227 2.34765,-0.75752 6.6568,-1.74614 9.57588,-2.19696 9.17997,-1.41769 8.81613,0.0756 7.10037,-29.14082 -2.34622,-39.952499 -2.13844,-38.713219 -7.05631,-42.083007 -3.39291,-2.324853 -6.01006,-2.891954 -13.3463,-2.891954 -8.88761,0 -9.256037,0.13102 -14.117679,5.020487 -2.745562,2.761268 -6.937854,8.73002 -9.316218,13.263895 l -4.324293,8.243408 2.777806,5.12839 c 1.527792,2.820615 3.269363,5.999601 3.870139,7.064421 2.685816,4.76024 7.042529,18.54569 10.401592,32.91251 1.330324,5.68988 2.467753,16.61305 4.737593,45.49671 0.34865,4.43673 1.08961,8.06679 1.64655,8.06679 0.55695,0 1.69719,-3.4795 2.53385,-7.73222 z m -30.595759,-3.31531 c 0.708318,-8.54138 3.66453,-12.16777 10.918241,-13.39341 4.824186,-0.81513 4.932656,-0.95441 4.62857,-5.94381 -0.171261,-2.81002 -0.988563,-6.75662 -1.816216,-8.77021 -1.263853,-3.07481 -2.040717,-3.53334 -4.85136,-2.86343 -13.129966,3.12956 -19.586602,1.86665 -16.826217,-3.29118 1.00743,-1.88239 2.745083,-2.44584 7.542939,-2.44584 4.352378,0 7.26041,-0.8074 9.634738,-2.67505 3.876615,-3.04935 4.201855,-5.43862 1.456797,-10.70203 -1.060444,-2.03331 -1.92808,-4.62488 -1.92808,-5.75907 0,-2.75155 -10.933624,-24.541976 -14.360084,-28.619258 -2.45827,-2.925192 -3.615963,-3.221618 -12.388921,-3.172155 l -9.677256,0.05456 -5.171681,5.544314 -5.17168,5.544319 0.555817,11.18005 c 0.305699,6.14903 1.245265,12.34167 2.087923,13.76142 0.84266,1.41976 2.096725,4.0334 2.786812,5.80809 0.690088,1.7747 3.003699,6.13077 5.141358,9.68015 2.137659,3.54939 4.452227,7.73202 5.143484,9.29473 0.691257,1.56271 2.656281,5.05817 4.366722,7.76769 4.575384,7.24787 11.199266,19.89021 11.199266,21.37492 0,1.28808 3.797501,4.682 5.325593,4.75962 0.444503,0.0226 1.075959,-3.18792 1.403235,-7.13442 z m 124.963449,-3.81722 c 7.12297,-3.68343 8.69128,-10.15653 4.89742,-20.21372 -1.69426,-4.49134 -3.90937,-5.23159 -9.12897,-3.0507 -7.98353,3.33574 -11.15058,9.46071 -8.71219,16.8491 1.35743,4.11307 5.47349,8.3732 8.09004,8.3732 0.58717,0 2.77135,-0.88105 4.8537,-1.95788 z m 24.12273,-11.89636 c 4.85736,-7.94503 7.77523,-17.08327 9.46289,-29.63608 0.76199,-5.66773 2.36655,-11.48436 3.66888,-13.29989 6.47846,-9.03139 8.52812,-20.591263 5.40103,-30.461212 -3.96673,-12.520128 -5.48613,-18.875827 -6.29425,-26.329006 l -0.90964,-8.389463 -7.74412,-0.645343 c -4.25926,-0.354939 -9.63928,-0.435717 -11.95562,-0.179506 -5.19742,0.574892 -11.51881,6.263987 -12.52971,11.276451 -0.41552,2.060273 -1.59473,6.649996 -2.62047,10.199385 -1.99228,6.89391 -4.41163,15.89468 -7.63245,28.395104 -2.48391,9.64041 -4.62769,24.48004 -4.62769,32.0337 0,7.50713 2.01414,9.1207 10.01196,8.02071 5.08041,-0.69874 6.60164,-0.42703 8.32564,1.487 3.0816,3.4213 7.47613,15.32101 7.47613,20.24422 0,2.33999 0.36678,4.62127 0.81504,5.06956 1.5781,1.57809 5.43194,-1.70025 9.15238,-7.78563 z m -22.22894,-29.67367 c -5.17554,-0.48545 -12.3175,-4.60175 -10.73316,-6.18609 1.17821,-1.17822 26.86674,0.76531 26.86674,2.03266 0,0.56774 -0.91269,1.94494 -2.02822,3.06045 -1.97838,1.97838 -3.45011,2.09243 -14.10536,1.09298 z M 45.336507,160.90386 c 2.368116,-0.48285 4.608811,-1.66791 4.979326,-2.63344 0.906031,-2.36109 -4.243775,-6.35905 -10.575676,-8.21024 -2.839511,-0.83016 -6.983529,-2.3852 -9.20893,-3.45566 -7.283931,-3.50366 -8.809553,-2.20565 -9.246799,7.86725 l -0.386115,8.89499 10.066265,-0.7925 c 5.536446,-0.43586 12.003814,-1.18754 14.371929,-1.6704 z m -6.970059,-24.89958 c 0.393067,-0.636 -0.149886,-2.81404 -1.206562,-4.84008 -1.056677,-2.02604 -1.924808,-4.95626 -1.929181,-6.51159 -0.01149,-4.06562 -2.090069,-4.77016 -5.123621,-1.73661 -4.536691,4.53669 -2.702327,10.92892 3.824983,13.32897 2.905328,1.06827 3.650389,1.02783 4.434381,-0.24069 z M 289.94835,48.425921 c 2.01077,-3.927263 4.87484,-22.894595 3.85743,-25.545918 -1.42799,-3.721275 -7.28928,-3.508229 -8.75767,0.318324 -0.42209,1.09995 -1.13606,8.02475 -1.58661,15.388445 -0.79847,13.049985 -0.7498,13.388537 1.92517,13.388537 1.69285,0 3.44069,-1.359977 4.56168,-3.549388 z" id="path4064" inkscape:connector-curvature="0"/>
</svg>